<svg xmlns="http://www.w3.org/2000/svg" width="135.137" height="45" viewBox="0 0 135.137 45"><defs><style>.a{fill:#fff;}.b{fill:#c60c30;}</style></defs><g transform="translate(-1507)"><path d="M133.239,0H22.5a22.5,22.5,0,0,0,0,45H133.239Z" transform="translate(1507)"/><path class="a" d="M78.322,28.939A1.649,1.649,0,0,1,76.463,30.6a1,1,0,0,1-1.076-.88c0-.587.489-.88,1.076-.978l1.859-.1Zm2.348,2.739V30.407h-.2c-.293,0-.391-.1-.391-.489V27.178a3.8,3.8,0,0,0-.2-1.467c-.391-1.076-1.467-1.467-2.739-1.467-1.663,0-2.935.685-3.033,2.348h1.663c0-.685.489-1.076,1.37-1.076.978,0,1.272.489,1.272,1.174v.489l-2.152.2a2.324,2.324,0,0,0-2.446,2.25c0,1.174.88,2.25,2.641,2.25a2.641,2.641,0,0,0,2.25-1.076,1.132,1.132,0,0,0,1.272.978.618.618,0,0,0,.685-.1Zm-8.413.1V26.885a2.415,2.415,0,0,0-2.446-2.641,2.6,2.6,0,0,0-2.152,1.076l-.1-.978H66.093v7.435h1.761V28.841a6.656,6.656,0,0,1,.2-1.957A1.393,1.393,0,0,1,69.322,26c.88,0,1.174.489,1.174,1.37v4.4Zm-9.685-3.62a2.952,2.952,0,0,1-.489,1.859,1.428,1.428,0,0,1-2.152,0,2.952,2.952,0,0,1-.489-1.859A2.952,2.952,0,0,1,59.93,26.3a1.428,1.428,0,0,1,2.152,0,2.952,2.952,0,0,1,.489,1.859m1.761,0a3.587,3.587,0,0,0-.88-2.641,3.486,3.486,0,0,0-2.543-1.174,3.166,3.166,0,0,0-2.543,1.174,3.746,3.746,0,0,0-.88,2.641,3.587,3.587,0,0,0,.88,2.641,3.486,3.486,0,0,0,2.543,1.174A3.166,3.166,0,0,0,63.452,30.8a3.438,3.438,0,0,0,.88-2.641M56.6,31.776V30.309h-.293c-.587,0-.685-.293-.685-.685V21.7H53.865v8.217a1.755,1.755,0,0,0,1.957,1.957,1.907,1.907,0,0,0,.783-.1m-6.065-4.3h-3.13a1.666,1.666,0,0,1,1.565-1.761,1.564,1.564,0,0,1,1.076.391,2.121,2.121,0,0,1,.489,1.37m1.761.783a4.649,4.649,0,0,0-.587-2.543,3.12,3.12,0,0,0-2.641-1.37,3.621,3.621,0,0,0-2.348.88,4.156,4.156,0,0,0-1.076,2.935,4.156,4.156,0,0,0,1.076,2.935,2.947,2.947,0,0,0,2.25.88,3.245,3.245,0,0,0,2.446-.978,2.2,2.2,0,0,0,.587-1.37H50.343a.9.9,0,0,1-.391.587,1.336,1.336,0,0,1-1.076.391,1.4,1.4,0,0,1-1.076-.489,1.532,1.532,0,0,1-.489-1.467H52.2c.1-.1.1-.391.1-.391m-7.728.978H42.811a1.414,1.414,0,0,1-.2.685,1.327,1.327,0,0,1-1.076.587,1.4,1.4,0,0,1-1.076-.489,2.952,2.952,0,0,1-.489-1.859,2.952,2.952,0,0,1,.489-1.859,1.262,1.262,0,0,1,1.076-.489,1.124,1.124,0,0,1,1.076.587,1.414,1.414,0,0,1,.2.685h1.761a2.222,2.222,0,0,0-.587-1.565,3.263,3.263,0,0,0-2.446-1.174A3.166,3.166,0,0,0,39,25.515a3.869,3.869,0,0,0-.783,2.641A4.452,4.452,0,0,0,39,30.8a3.486,3.486,0,0,0,2.543,1.174A2.968,2.968,0,0,0,43.985,30.8a2.222,2.222,0,0,0,.587-1.565M37.724,26.2V24.537h-.587a2.1,2.1,0,0,0-2.054,1.174l-.2-1.076H33.42v7.141H35.18v-3.62A1.853,1.853,0,0,1,37.039,26.1a1.665,1.665,0,0,1,.685.1M29.6,28.939A1.649,1.649,0,0,1,27.746,30.6a1,1,0,0,1-1.076-.88c0-.587.489-.88,1.076-.978l1.859-.1Zm2.348,2.739V30.407h-.2c-.293,0-.391-.1-.391-.489V27.178a3.8,3.8,0,0,0-.2-1.467c-.391-1.076-1.467-1.467-2.739-1.467-1.663,0-2.935.685-3.033,2.348h1.663c0-.685.489-1.076,1.37-1.076.978,0,1.272.489,1.272,1.174v.489l-2.152.2a2.324,2.324,0,0,0-2.446,2.25c0,1.174.88,2.25,2.641,2.25A2.641,2.641,0,0,0,30,30.8a1.132,1.132,0,0,0,1.272.978.618.618,0,0,0,.685-.1ZM22.17,28.841c0,.978-.88,1.272-1.761,1.272h-2.25V27.374h2.25c.978.1,1.761.489,1.761,1.467m-.2-4.109c0,.978-.685,1.272-1.467,1.272h-2.25V23.559h2.25a1.164,1.164,0,0,1,1.467,1.174m1.957,4.207a2.515,2.515,0,0,0-1.467-2.25,2.125,2.125,0,0,0,1.174-2.054,2.455,2.455,0,0,0-1.174-2.152,4.544,4.544,0,0,0-2.25-.587H16.3v9.88h3.913a4.136,4.136,0,0,0,2.641-.685,2.37,2.37,0,0,0,1.076-2.152" transform="translate(1507 -0.472)"/><path class="a" d="M79.3,14.709h-2.25a1.111,1.111,0,0,1,.293-.783,1.24,1.24,0,0,1,.88-.391.963.963,0,0,1,.783.293,1.857,1.857,0,0,1,.293.88m1.174.489a3.129,3.129,0,0,0-.489-1.859,2.119,2.119,0,0,0-1.859-.978,2.36,2.36,0,0,0-1.663.685,2.971,2.971,0,0,0-.783,2.054,2.8,2.8,0,0,0,.783,2.054,2.481,2.481,0,0,0,3.424,0,3.06,3.06,0,0,0,.489-.978H79.2a1.3,1.3,0,0,1-.293.489.963.963,0,0,1-.783.293,1.868,1.868,0,0,1-.783-.293,1.134,1.134,0,0,1-.391-.978h3.522c0-.2,0-.489,0-.489m-6.652,0c0,.783-.2,1.663-1.174,1.663a1.24,1.24,0,0,1-.88-.391,1.775,1.775,0,0,1-.293-1.272,2.708,2.708,0,0,1,.293-1.272,1.24,1.24,0,0,1,.88-.391c.978,0,1.174.88,1.174,1.663m1.272,2.641V10.6H73.82v2.348a1.632,1.632,0,0,0-1.37-.489,2.447,2.447,0,0,0-1.272.391A2.931,2.931,0,0,0,70.2,15.2a2.807,2.807,0,0,0,.88,2.25,1.86,1.86,0,0,0,1.272.489,1.646,1.646,0,0,0,1.467-.685l.1.587h1.174Zm-7.533-.1V16.665c-.293,0-.587.1-.783.1a.519.519,0,0,1-.587-.587V13.633h1.272V12.557H66.189V10.991l-1.272.293v1.37h-.978V13.73h.978v2.641a1.4,1.4,0,0,0,1.565,1.565c.391-.1.783-.1,1.076-.2m-4.011.1V14.317a1.721,1.721,0,0,0-1.761-1.859,1.9,1.9,0,0,0-1.565.783l-.1-.685H59.048v5.283H60.32V15.687a3.109,3.109,0,0,1,.2-1.37,1.044,1.044,0,0,1,.88-.685c.685,0,.88.391.88.978v3.228Zm-6.457-3.13h-2.25a1.111,1.111,0,0,1,.293-.783,1.24,1.24,0,0,1,.88-.391.963.963,0,0,1,.783.293,1.2,1.2,0,0,1,.293.88m1.272.489a3.129,3.129,0,0,0-.489-1.859,2.119,2.119,0,0,0-1.859-.978,2.36,2.36,0,0,0-1.663.685A2.971,2.971,0,0,0,53.57,15.1a2.8,2.8,0,0,0,.783,2.054,2.481,2.481,0,0,0,3.424,0,3.06,3.06,0,0,0,.489-.978H57.091a1.3,1.3,0,0,1-.293.489.963.963,0,0,1-.783.293,1.868,1.868,0,0,1-.783-.293,1.134,1.134,0,0,1-.391-.978h3.522c0-.2,0-.489,0-.489m-5.478,2.641V14.317a1.727,1.727,0,0,0-3.228-.978,1.687,1.687,0,0,0-1.467-.88,1.609,1.609,0,0,0-1.467.783l-.1-.685H45.548v5.283H46.82V15c0-.685.293-1.37,1.076-1.37.587,0,.783.391.783.978v3.228H49.95V15c0-.685.293-1.37.978-1.37.587,0,.783.391.783.978v3.228ZM43.1,15.687c0,.783-.587,1.174-1.37,1.174a.691.691,0,1,1,0-1.37l1.37-.1Zm1.663,2.054v-.88h-.2c-.2,0-.2-.1-.2-.391V14.513a2.106,2.106,0,0,0-.2-1.076,1.9,1.9,0,0,0-1.957-1.076c-1.174,0-2.054.489-2.152,1.663h1.174c0-.489.391-.783.978-.783.685,0,.88.293.88.783v.293l-1.565.1a1.735,1.735,0,0,0-1.761,1.663,1.7,1.7,0,0,0,1.859,1.663,1.749,1.749,0,0,0,1.565-.783c0,.391.293.685.88.685.391.293.489.2.685.1Zm-5.185,0V16.665c-.293,0-.587.1-.783.1a.519.519,0,0,1-.587-.587V13.633h1.272V12.557H38.211V10.991l-1.272.293v1.37h-.978V13.73h.978v2.641A1.4,1.4,0,0,0,38.5,17.937c.391-.1.685-.1,1.076-.2m-4.011.1V14.317a1.721,1.721,0,0,0-1.761-1.859,1.9,1.9,0,0,0-1.565.783l-.1-.685H31.07v5.283h1.272V15.687a3.109,3.109,0,0,1,.2-1.37,1.044,1.044,0,0,1,.88-.685c.685,0,.88.391.88.978v3.228Zm-5.674,0V12.654H28.722v2.739a1.708,1.708,0,0,1-.391,1.174.888.888,0,0,1-.685.293c-.685,0-.88-.391-.88-.978V12.654H25.493v3.522a1.721,1.721,0,0,0,1.761,1.859,1.508,1.508,0,0,0,1.467-.783l.1.685H29.9Zm-5.478.685V12.557H23.146V18.23a.519.519,0,0,1-.587.587,1.721,1.721,0,0,1-.587-.1V19.8a1.241,1.241,0,0,0,.587.1h.489c.88.1,1.37-.489,1.37-1.37m0-7.924h-1.37v1.272h1.37Zm-4.011,4.7H18.352l.978-3.033Zm2.152,2.543L20.015,10.7h-1.37L16.2,17.839h1.272l.489-1.37H20.8l.489,1.37Z" transform="translate(1507 -0.23)"/><g transform="translate(1594.3)"><path class="b" d="M135.137,0H108.822C96.985,0,87.3,10.076,87.3,22.5S96.985,45,108.92,45h26.217Z" transform="translate(-87.3)"/><path class="a" d="M111.4,37.6l11.739-11.739L111.4,14.12,99.663,25.859Zm11.935-11.739a32.992,32.992,0,0,1-5.38,6.457,35.025,35.025,0,0,1-6.554,5.478,31.33,31.33,0,0,1-6.359-5.38,35.026,35.026,0,0,1-5.478-6.554,31.329,31.329,0,0,1,5.38-6.359,35.025,35.025,0,0,1,6.554-5.478,32.992,32.992,0,0,1,6.457,5.38,34.36,34.36,0,0,1,5.38,6.457M111.4,37.6l11.739-11.739L111.4,14.12,99.663,25.859Zm11.935-11.739a32.992,32.992,0,0,1-5.38,6.457,35.025,35.025,0,0,1-6.554,5.478,31.33,31.33,0,0,1-6.359-5.38,35.026,35.026,0,0,1-5.478-6.554,31.329,31.329,0,0,1,5.38-6.359,35.025,35.025,0,0,1,6.554-5.478,32.992,32.992,0,0,1,6.457,5.38,34.36,34.36,0,0,1,5.38,6.457m-1.174-.2h-1.076V24.587Zm-2.25-2.25v2.25h-1.174V22.239Zm-2.348-2.348v4.6h-1.174v-5.87Zm-2.348-2.348v7.043h-1.174V17.543Zm-2.446-2.446v9.391H111.6V15.1Zm-12.13,9.783h1.076V27.13Zm2.348,2.25v-2.25h1.174v3.424Zm2.348,2.348v-4.6h1.174v5.87Zm2.348,2.446V26.054h1.174v8.217Zm2.348,2.348V26.054h1.174V36.62Zm1.565-9.391h2.348v2.935H111.6Zm2.348,8.217L111.6,36.62V30.163h2.348Zm-5.087-16.826,2.348-2.348v6.457h-2.348Zm2.446,8.217h-2.348V22.728H111.3Zm12.62.2a.489.489,0,1,1,.489.489.462.462,0,0,1-.489-.489M98,25.859a.489.489,0,1,1,.489.489A.462.462,0,0,1,98,25.859M110.913,38.87a.489.489,0,1,1,.489.489.524.524,0,0,1-.489-.489M108.467,8.837a4.237,4.237,0,0,0-.489-.1c-.685,0-1.174.391-1.174.88a.7.7,0,0,0,.293.587l-.489.489a1.62,1.62,0,0,1-.489-1.174,1.857,1.857,0,0,1,1.957-1.663,1.907,1.907,0,0,1,.783.1,2.128,2.128,0,0,1,1.565-.685,1.972,1.972,0,0,1,1.076.293,1.972,1.972,0,0,1,1.076-.293,2.128,2.128,0,0,1,1.565.685,1.907,1.907,0,0,1,.783-.1,1.857,1.857,0,0,1,1.957,1.663,1.8,1.8,0,0,1-.489,1.174l-.489-.489a.846.846,0,0,0,.293-.587c0-.489-.489-.88-1.174-.88a.882.882,0,0,0-.489.1V9.13a1.578,1.578,0,0,1-.293.88l-.587-.587c.1-.1.1-.2.1-.391,0-.489-.489-.88-1.174-.88a1.414,1.414,0,0,0-.685.2V9.424h-.783V8.348a1.814,1.814,0,0,0-.685-.2c-.685,0-1.174.391-1.174.88a.74.74,0,0,0,.1.391l-.489.587a1.578,1.578,0,0,1-.293-.88.359.359,0,0,1-.1-.293m-.685,3.913.391.587a7.952,7.952,0,0,1,6.457,0l.391-.587a8.762,8.762,0,0,0-7.239,0m3.13-6.261a.489.489,0,1,1,.489.489.628.628,0,0,1-.489-.489m-3.13,5.674a.65.65,0,0,1-.489-.391.538.538,0,0,1,.489-.293.65.65,0,0,1,.489.391.538.538,0,0,1-.489.293m-.293-.978a.538.538,0,0,0-.489-.293.647.647,0,0,0-.1.587.538.538,0,0,0,.489.293,1.241,1.241,0,0,0,.1-.587m2.25.391a.689.689,0,0,1-.391-.489,1.39,1.39,0,0,1,.587-.2.689.689,0,0,1,.391.489c-.293.2-.489.293-.587.2m-.587.1a.827.827,0,0,0,.2-.587.647.647,0,0,0-.587.1.548.548,0,0,0-.1.587.43.43,0,0,0,.489-.1m.391-1.076c0-.2-.2-.293-.391-.391-.2.2-.293.391-.2.489,0,.2.2.293.391.391.2-.1.2-.293.2-.489m5.478,1.565a.65.65,0,0,0,.489-.391.538.538,0,0,0-.489-.293c-.2,0-.293.2-.391.391a.524.524,0,0,0,.391.293m.391-.978a.538.538,0,0,1,.489-.293.647.647,0,0,1,.1.587.538.538,0,0,1-.489.293.647.647,0,0,1-.1-.587m-2.25.391a.689.689,0,0,0,.391-.489,1.39,1.39,0,0,0-.587-.2.689.689,0,0,0-.391.489c.2.2.391.293.587.2m.489.1a.827.827,0,0,1-.2-.587.647.647,0,0,1,.587.1.548.548,0,0,1,.1.587c-.1.1-.293,0-.489-.1m-.293-1.076c0-.2.2-.293.391-.391a.632.632,0,0,1,.2.489c0,.2-.2.293-.391.391a.357.357,0,0,1-.2-.489m-2.152.783a.538.538,0,0,0,.293-.489.624.624,0,0,0-.587,0,.538.538,0,0,0-.293.489.624.624,0,0,0,.587,0m.489,0a.538.538,0,0,1-.293-.489.624.624,0,0,1,.587,0,.538.538,0,0,1,.293.489.624.624,0,0,1-.587,0m-.587-.978a.333.333,0,1,1,.293.489.832.832,0,0,1-.293-.489" transform="translate(-87.533 -0.13)"/><path class="a" d="M115.6,33.537h0V30.7h2.837Z" transform="translate(-87.915 -0.667)"/><path class="a" d="M105,21.835l2.837-2.935v2.935Z" transform="translate(-87.685 -0.411)"/><path class="a" d="M115.6,26.5v2.935h4.011l2.935-2.935Z" transform="translate(-87.915 -0.576)"/><path class="a" d="M103.733,23.1,100.7,26.035h7.043V23.1Z" transform="translate(-87.591 -0.502)"/></g></g></svg>